# xmcd CD database file
#
# Track frame offsets:
#	150
#	7678
#	21780
#	37042
#	50396
#	62267
#	78232
#	88982
#	100011
#	116399
#	127107
#	136501
#	150520
#	160691
#	168885
#	182304
#	193278
#	202047
#	214848
#	223747
#	233209
#	245371
#	258089
#	273672
#	281202
#
# Disc length: 3857 seconds
#
# Revision: 2
# Processed by: cddbd v1.5.2PL0 Copyright (c) Steve Scherf et al.
# Submitted via: CDex 1.70beta2
#
DISCID=500f0f19
DTITLE=Artiste Variés - Sur La Route Du Country Vol.2
DYEAR=1900
DGENRE=Country
TTITLE0=La Fin D'Un Roman D'Amour - R. Groleau
TTITLE1=Histoire D'Une Jeune Fille - R. Groleau
TTITLE2=Ce Soir Je T'Attends - R. Groleau
TTITLE3=Le Jour De L'Adieu - R. Groleau
TTITLE4=L'Horloge De Grand-Père - DP
TTITLE5=Chere Détenu - G. Richard
TTITLE6=Un Verrre Pour T'Oublier - J. Fontaine
TTITLE7=Je Chante Pour Vous - J. Fontaine
TTITLE8=Touts Seule Sans Amour - G. Richard
TTITLE9=Tu N'As Pas Le Droit - J. Fontaine
TTITLE10=Si Tu Pars Chérie - M. Lafroiboise
TTITLE11=Je Pense À Toi - M. Lafroiboise
TTITLE12=Si Un Jour Tu Décidais - M. Lafroiboise
TTITLE13=Si Tu Veux Un Amour - M. Lafroiboise
TTITLE14=Écoute Ma Prière - M. Lafroiboise
TTITLE15=L'automne Dans La Vallée - P. Brunelle
TTITLE16=Cooki Cooki - M. Paquin
TTITLE17=Partons La Mer Est Belle - DP
TTITLE18=Le Yoodle Des Prairies - M. Paquin
TTITLE19=Laisse Entrer Le Bonheur
TTITLE20=De Toi - G. Richard
TTITLE21=Mon Frotte Minoune Préféré - G. Richard
TTITLE22=Francine - C. Boutin
TTITLE23=Toujours Plus Loin - C. Boutin
TTITLE24=De Bon Parents - C. Boutin
EXTD=
EXTT0=
EXTT1=
EXTT2=
EXTT3=
EXTT4=
EXTT5=
EXTT6=
EXTT7=
EXTT8=
EXTT9=
EXTT10=
EXTT11=
EXTT12=
EXTT13=
EXTT14=
EXTT15=
EXTT16=
EXTT17=
EXTT18=
EXTT19=
EXTT20=
EXTT21=
EXTT22=
EXTT23=
EXTT24=
PLAYORDER=
